<?xml version="1.0" encoding="UTF-8" standalone="no"?>
<!-- Generator: Adobe Illustrator 22.0.0, SVG Export Plug-In . SVG Version: 6.00 Build 0)  -->

<svg
   version="1.1"
   x="0px"
   y="0px"
   viewBox="0 0 182 182"
   xml:space="preserve"
   id="svg24"
   width="182"
   height="182"
   xmlns="http://www.w3.org/2000/svg"
   xmlns:svg="http://www.w3.org/2000/svg"><defs
   id="defs28" />
<style
   type="text/css"
   id="style2">
	.st0{fill:url(#SVGID_1_);}
	.st1{fill:#F094BE;}
	.st2{fill:#4D3F92;}
	.st3{fill:#FFFFFF;}
</style>

<g
   id="Capa_2">
	<g
   id="g21">
		<path
   class="st2"
   d="m 151.6,95.1 c 1.5,-0.3 2.8,-1 3.8,-2 4,-5.3 0.8,-11.8 -4.5,-12.6 -0.8,0 -1.5,-0.8 -1.5,-1.5 0,-0.3 0,-0.5 0,-0.5 0.8,-0.8 1.5,-1.8 2.5,-3.3 8.1,-10.8 11.8,-50.6 3.8,-53.7 -9.8,-3.3 -29.7,6.3 -38.3,17.4 -0.5,-0.3 -1,-1 -1,-1.8 0.3,-3 -1.3,-5.5 -3.5,-6.8 -4.5,-2.3 -8.8,0 -10.6,3.3 -0.5,0.8 -1.3,1.3 -2,1 -0.8,0 -1.5,-0.8 -1.5,-1.5 -0.5,-2.5 -2,-4.5 -4.3,-5.5 -4.8,-2 -9.8,0.8 -10.6,5.3 -0.3,0.8 -0.8,1.5 -1.5,1.5 -0.8,0.3 -1.5,-0.3 -2,-1 -1.5,-2.3 -4,-3.8 -6.5,-3.8 -4,0 -7.6,3.3 -7.8,7.3 v 0.3 0.3 c 0,0.8 -0.5,1.5 -1,1.8 H 64.8 C 56.5,28.5 36.3,18.6 26.3,21.9 c -8.1,2.8 -4.3,42.6 4,53.4 1.5,2 2.8,3.5 3.8,4.5 -0.3,0.8 -1,1.5 -1.8,1.5 -1.3,0 -2.5,0.5 -3.5,1.3 -5.3,5 -2.3,12.1 3,13.4 0.8,0.3 1.5,1 1.5,1.8 0,0.8 -0.5,1.8 -1.3,2 -1,0.5 -2,1 -2.8,2 -4,5.8 0,12.3 5.5,12.3 0.8,0 1.5,0.5 1.8,1.3 0.3,0.8 0.3,1.5 -0.5,2 -1.5,1.5 -2.3,3.5 -2,5.5 0.3,2.8 2,5.3 4.8,6.5 1.5,0.8 3,0.8 4.5,0.5 0.8,-0.3 1.5,0 2,0.8 0.5,0.5 0.5,1.5 0.3,2 -0.8,1.5 -1,3.3 -0.5,5 0.8,2.8 2.8,4.8 5.5,5.5 2.5,0.5 4.3,-0.3 5.5,-0.8 0.5,-0.3 -3.3,9.1 -6,15.4 -0.8,2 1.3,4.3 3.5,3.3 8.3,-3.8 22.2,-10.3 22.2,-9.8 0.5,5.3 6.5,9.1 12.3,5.3 1.3,-0.8 2,-2.3 2.3,-3.5 0.3,-0.8 1,-1.5 2,-1.5 1,0 1.8,0.5 2,1.5 0.3,1.3 0.8,2.3 1.8,3 5.8,4.5 12.3,0.8 12.8,-4.8 0,-0.8 0.5,-1.5 1.3,-1.8 0.8,-0.3 1.5,0 2,0.5 1.5,1.5 3.3,2.5 5.3,2.5 v 0 c 2.5,0 5,-1.3 6.5,-3.8 1,-1.5 1.3,-3 1,-5 0,-0.8 0.3,-1.5 0.8,-2 0.5,-0.5 1.5,-0.5 2,0 1.5,0.8 3.3,1.3 5,0.8 2.8,-0.5 5,-2.8 5.8,-5.3 0.5,-1.8 0.3,-3.5 -0.5,-5.3 -0.3,-0.8 -0.3,-1.5 0.3,-2 0.6,-0.5 1.3,-0.8 2,-0.8 1.8,0.3 3.3,0.3 4.8,-0.5 2.3,-1 3.8,-3 4.3,-5.5 0.5,-2.5 -0.3,-4.8 -2,-6.5 -0.5,-0.5 -0.8,-1.3 -0.5,-2 0.3,-0.7 1,-1.3 1.8,-1.3 1.8,0 3.8,-0.5 5,-2 4.3,-4.5 2.3,-10.6 -2.5,-12.6 -0.8,-0.3 -1.3,-1 -1.3,-2 0,-0.9 0.7,-1.6 1.5,-1.6 z"
   id="path7" />
		<path
   class="st3"
   d="m 131.4,42.2 c 0.5,1.5 0.5,3 0,4.5 -0.3,0.8 0,1.5 0.5,2 0.5,0.5 1.3,0.8 2,0.5 1,-0.5 2,-0.5 3,-0.5 2.3,0 4.3,1 5.8,3 1,1.3 1.8,3 1.5,4.8 0,1.5 -0.5,2.8 -1.3,4 -0.5,0.5 -0.5,1.5 0,2 0.3,0.3 0.5,0.8 1,0.8 1,-0.3 2,-1 2.8,-2 4.5,-6.3 5.3,-26.2 0.8,-27.7 -4.5,-1.5 -12.3,1.5 -17.9,6 1.1,0.5 1.6,1.3 1.8,2.6 z"
   id="path9" />
		<path
   class="st3"
   d="m 39,63.6 c 0.3,-0.3 0.5,-0.5 0.8,-0.8 0.5,-0.8 0.3,-1.5 0,-2 C 38.5,59 38.2,57 38.5,55 39,52.2 41.3,50 44,49.2 c 1.5,-0.5 3,-0.3 4.5,0.3 0.8,0.3 1.5,0 2,-0.5 0.5,-0.5 0.8,-1.3 0.5,-2 -0.5,-1.5 -0.5,-3 0,-4.5 0.3,-1 0.8,-2 1.5,-2.8 -5.5,-4.5 -13.9,-7.8 -18.4,-6.3 -4.5,1.5 -3.7,21.4 0.9,27.7 1,1.5 2.2,2.2 4,2.5 z"
   id="path11" />
		<g
   id="g19">
			<circle
   class="st3"
   cx="60.900002"
   cy="94.599998"
   r="9.3000002"
   id="circle13" />
			<path
   class="st3"
   d="m 100.7,94.6 c 0,5.3 -4.3,9.3 -9.3,9.3 -5.3,0 -9.3,-4.3 -9.3,-9.3 0,-5 18.6,-5.3 18.6,0 z"
   id="path15" />
			<circle
   class="st3"
   cx="121.6"
   cy="94.599998"
   r="9.3000002"
   id="circle17" />
		</g>
	</g>
</g>
</svg>
